<?xml version="1.0" standalone="no"?>
<!DOCTYPE svg PUBLIC "-//W3C//DTD SVG 20010904//EN"
 "http://www.w3.org/TR/2001/REC-SVG-20010904/DTD/svg10.dtd">
<svg version="1.0" xmlns="http://www.w3.org/2000/svg"
 width="2000.000000pt" height="2000.000000pt" viewBox="0 0 2000.000000 2000.000000"
 preserveAspectRatio="xMidYMid meet">
<metadata>
Created by potrace 1.14, written by Peter Selinger 2001-2017
</metadata>
<g transform="translate(0.000000,2000.000000) scale(0.100000,-0.100000)"
fill="#000000" stroke="none">
<path d="M0 10000 l0 -10000 10000 0 10000 0 0 10000 0 10000 -10000 0 -10000
0 0 -10000z m3470 3500 c120 -32 153 -43 220 -77 95 -47 195 -126 261 -206 29
-34 55 -64 59 -67 15 -11 100 -184 100 -205 0 -9 7 -29 15 -45 21 -40 34 -210
25 -320 -9 -104 -26 -162 -84 -279 -84 -173 -207 -295 -378 -379 -38 -18 -72
-42 -78 -52 -14 -26 -14 -4284 0 -4311 10 -19 30 -19 813 -19 611 0 806 3 815
12 9 9 12 502 12 2159 0 1181 -3 2155 -6 2163 -4 9 -39 32 -79 51 -40 20 -78
42 -85 50 -7 8 -16 15 -20 15 -11 0 -84 64 -133 115 -46 49 -104 135 -136 200
-13 28 -30 63 -38 80 -8 16 -19 52 -24 80 -5 27 -13 70 -19 95 -5 25 -9 70
-10 101 0 70 34 255 54 294 9 17 16 37 16 45 0 9 7 26 17 39 9 13 27 44 40 69
13 24 34 57 47 71 13 14 41 45 61 69 106 120 267 208 460 252 53 12 260 12
305 0 111 -30 150 -43 219 -77 91 -44 179 -111 249 -190 28 -32 57 -64 64 -72
25 -28 89 -157 113 -226 9 -27 23 -97 29 -155 23 -188 -5 -348 -89 -505 -53
-99 -93 -148 -210 -254 -34 -31 -167 -111 -185 -111 -6 0 -22 -11 -35 -25
l-25 -24 0 -2138 c0 -1176 4 -2144 9 -2151 6 -11 44 -11 207 -2 109 6 235 17
279 25 44 8 114 19 155 25 174 24 219 32 290 49 41 10 120 29 175 41 55 12
127 29 160 39 119 35 211 64 260 82 28 10 62 20 77 23 17 4 29 15 35 33 4 16
7 765 5 1665 l-2 1638 -66 31 c-95 44 -158 91 -245 180 -70 72 -169 220 -169
251 0 7 -7 27 -16 43 -18 34 -54 219 -54 280 0 86 58 337 84 363 4 4 14 21 22
37 40 82 128 191 207 253 72 57 207 132 257 143 19 4 55 15 80 24 64 24 326
23 390 0 25 -9 61 -20 80 -24 19 -5 70 -26 112 -49 318 -166 492 -505 444
-864 -8 -59 -22 -120 -30 -137 -9 -16 -16 -38 -17 -48 0 -10 -13 -40 -29 -68
-16 -27 -39 -67 -50 -88 -27 -48 -161 -185 -226 -230 -29 -20 -81 -49 -117
-66 -35 -17 -67 -38 -71 -46 -3 -9 -6 -691 -6 -1516 0 -1345 2 -1500 16 -1506
43 -16 462 261 658 436 70 63 290 284 331 334 22 27 45 54 50 60 36 44 134
176 145 197 7 14 16 27 19 30 9 7 61 89 61 95 0 3 -31 42 -70 86 -38 45 -84
106 -101 138 -18 31 -37 63 -44 71 -16 22 -51 114 -74 201 -17 61 -21 105 -21
235 0 167 6 204 64 354 76 197 250 400 417 486 30 15 61 33 69 39 8 7 26 16
40 19 14 4 41 13 60 21 109 41 186 55 313 55 121 0 167 8 167 30 0 5 18 36 40
67 22 32 40 62 40 67 0 5 7 18 17 28 9 10 21 27 27 38 16 28 161 216 220 285
56 66 320 332 379 381 173 148 237 196 422 321 109 74 114 77 171 111 22 12
53 31 69 41 42 27 289 156 315 165 8 3 22 10 30 15 8 5 38 19 65 31 28 12 68
29 90 39 102 47 136 61 146 61 6 0 25 7 42 15 18 8 50 21 72 28 22 8 56 21 75
28 175 63 413 133 545 160 28 6 68 16 90 23 22 8 67 17 99 21 33 4 71 11 84
16 13 5 56 14 96 19 39 5 109 16 156 24 134 24 334 48 475 58 199 15 3596 22
3668 8 95 -18 154 -68 203 -169 23 -48 26 -64 22 -128 -3 -49 -11 -79 -22 -91
-9 -10 -16 -23 -16 -28 -1 -14 -51 -68 -100 -105 l-44 -34 -310 -3 c-203 -2
-314 -7 -323 -14 -11 -8 -13 -406 -13 -2157 0 -1180 3 -2156 6 -2169 4 -13 17
-25 33 -29 24 -5 102 -46 126 -66 6 -4 24 -18 41 -30 71 -50 154 -139 209
-222 18 -27 28 -47 79 -155 9 -19 20 -55 25 -80 5 -25 14 -70 21 -100 23 -99
0 -280 -54 -426 -21 -58 -82 -160 -133 -223 -48 -59 -170 -164 -218 -188 -16
-8 -55 -27 -85 -43 -30 -16 -62 -29 -71 -29 -9 -1 -45 -10 -79 -21 -89 -29
-301 -29 -390 0 -34 11 -69 20 -76 20 -13 0 -81 30 -114 51 -8 5 -26 14 -40
20 -30 13 -158 115 -183 147 -11 12 -35 39 -54 60 -19 20 -43 53 -53 72 -52
100 -80 161 -80 175 0 9 -7 30 -16 47 -21 40 -32 198 -23 318 10 118 32 183
116 345 23 43 80 113 137 165 27 25 56 53 65 63 8 9 21 17 28 17 6 0 18 6 25
13 21 21 105 67 122 67 8 0 24 12 35 26 l21 27 0 2139 c0 1456 -3 2145 -10
2159 -10 19 -30 19 -806 19 -529 0 -802 -3 -815 -10 -19 -11 -19 -45 -19
-2163 0 -1932 2 -2155 16 -2175 8 -12 22 -22 30 -22 9 0 36 -12 62 -27 148
-85 282 -225 348 -363 51 -105 64 -139 64 -161 1 -13 7 -51 15 -84 8 -33 15
-85 15 -116 0 -71 -34 -255 -54 -294 -9 -16 -16 -35 -16 -42 0 -27 -64 -132
-128 -212 -47 -59 -169 -164 -217 -188 -16 -8 -55 -27 -85 -43 -30 -16 -62
-29 -71 -29 -9 -1 -45 -10 -79 -21 -89 -29 -301 -29 -390 0 -34 11 -69 20 -76
20 -13 0 -81 30 -114 51 -8 5 -26 14 -40 20 -22 9 -158 114 -170 130 -3 4 -28
33 -55 64 -50 57 -56 67 -107 167 -42 84 -59 145 -73 258 -21 176 6 346 77
479 13 24 29 55 37 70 38 72 159 195 246 252 74 48 112 69 128 69 9 0 25 12
36 26 l21 27 0 2136 c0 1175 -4 2142 -8 2149 -7 10 -51 10 -233 -2 -123 -8
-240 -19 -259 -25 -19 -5 -70 -12 -113 -16 -43 -4 -93 -11 -110 -16 -18 -6
-70 -14 -116 -20 -46 -5 -92 -14 -102 -20 -10 -5 -51 -16 -91 -24 -131 -25
-182 -37 -228 -52 -25 -8 -61 -18 -80 -23 -38 -9 -105 -31 -185 -61 -28 -11
-59 -19 -69 -19 -11 0 -28 -7 -38 -17 -17 -15 -18 -80 -18 -1668 0 -1700 -1
-1675 37 -1675 7 0 43 -18 79 -40 36 -22 69 -40 73 -40 8 0 134 -121 177 -170
33 -39 114 -175 114 -193 0 -7 7 -25 16 -42 18 -35 54 -221 54 -279 -1 -93
-52 -314 -85 -366 -5 -8 -19 -34 -32 -58 -53 -100 -206 -256 -293 -300 -14 -7
-50 -26 -80 -42 -30 -16 -63 -30 -72 -30 -10 0 -39 -8 -65 -19 -93 -35 -379
-34 -448 3 -16 9 -39 16 -50 16 -11 0 -45 14 -75 30 -30 16 -66 35 -80 42 -50
24 -164 124 -215 188 -112 138 -164 266 -185 446 -11 102 6 280 33 345 8 19
25 59 38 89 13 30 42 82 64 115 47 71 195 221 227 230 13 4 30 13 38 20 8 7
43 27 76 44 34 17 65 38 68 47 3 9 6 690 6 1515 0 1268 -2 1500 -14 1505 -15
6 -59 -13 -121 -51 -22 -13 -47 -28 -55 -32 -29 -15 -194 -127 -245 -166 -27
-21 -59 -44 -70 -53 -126 -94 -184 -145 -319 -279 -127 -127 -192 -199 -274
-305 -64 -84 -182 -257 -182 -268 0 -4 17 -25 37 -47 57 -62 123 -145 123
-155 0 -4 16 -32 35 -62 20 -29 38 -64 42 -78 3 -14 12 -34 19 -45 8 -11 14
-27 14 -36 0 -9 9 -45 20 -79 29 -92 29 -369 0 -453 -11 -31 -20 -62 -20 -68
0 -14 -22 -65 -63 -147 -47 -93 -47 -93 -116 -178 -71 -87 -179 -178 -266
-224 -31 -16 -62 -33 -68 -37 -20 -13 -121 -53 -133 -53 -6 0 -40 -9 -74 -20
-50 -16 -90 -20 -201 -20 -98 0 -141 -4 -149 -12 -15 -18 -100 -149 -100 -154
0 -5 -66 -100 -97 -139 -13 -16 -31 -39 -39 -50 -31 -43 -110 -142 -139 -175
-67 -78 -365 -370 -439 -430 -165 -134 -444 -330 -536 -378 -14 -7 -36 -20
-50 -28 -46 -29 -184 -102 -285 -152 -109 -53 -185 -88 -320 -147 -53 -23
-140 -55 -149 -55 -5 0 -27 -8 -50 -19 -23 -10 -75 -29 -116 -41 -41 -13 -97
-31 -125 -41 -78 -27 -189 -59 -203 -59 -7 0 -47 -9 -90 -21 -42 -11 -99 -27
-127 -34 -27 -8 -72 -17 -100 -20 -27 -4 -72 -13 -100 -20 -27 -7 -72 -16
-100 -19 -27 -4 -88 -13 -135 -21 -159 -27 -424 -55 -640 -67 -140 -7 -775
-13 -1814 -15 -1385 -3 -1609 -2 -1678 11 -112 21 -178 71 -223 167 -61 132
-11 275 129 368 l39 26 306 3 c197 2 310 7 318 14 11 8 13 420 13 2158 0 1182
-3 2155 -6 2164 -3 9 -36 30 -73 48 -156 77 -307 226 -376 373 -15 33 -34 71
-40 85 -7 14 -16 43 -20 65 -4 22 -14 65 -22 95 -28 99 -6 291 52 450 9 25 22
52 29 60 7 8 18 26 24 40 91 189 314 349 572 409 49 12 268 12 310 1z"/>
</g>
</svg>
