<?xml version="1.0" encoding="UTF-8"?>
<svg width="512px" height="512px" viewBox="0 0 512 512" version="1.1" xmlns="http://www.w3.org/2000/svg" xmlns:xlink="http://www.w3.org/1999/xlink">
    <title>编组 6</title>
    <g id="LOGO" stroke="none" stroke-width="1" fill="none" fill-rule="evenodd">
        <g id="编组-6">
            <circle id="椭圆形" fill="#FF0083" cx="256" cy="256" r="256"></circle>
            <path d="M158.956167,180 C169.05294,180 177.238532,188.141773 177.238532,198.185502 C177.238532,206.049062 172.219842,212.747579 165.194998,215.284479 L165.195976,309.489552 C178.273863,308.91525 190.434875,306.53499 201.239641,302.58975 L201.239253,230.367242 C194.214408,227.830342 189.195719,221.131825 189.195719,213.268265 C189.195719,203.224536 197.381311,195.082762 207.478084,195.082762 C217.574856,195.082762 225.760448,203.224536 225.760448,213.268265 C225.760448,221.131825 220.741759,227.830342 213.716914,230.367242 L213.717499,297.017147 C225.730545,290.557147 235.354637,281.813884 241.736626,271.255278 C237.406469,267.373657 234.685015,261.752855 234.685015,255.5 C234.685015,243.789934 244.228001,234.297945 256,234.297945 C256.966678,234.297945 257.918327,234.361951 258.850895,234.485935 C275.08532,206.407909 309.895418,189.401707 351.428286,188.97182 L353.043833,188.96347 L419.761468,188.96347 C423.206914,188.96347 426,191.741758 426,195.168949 C426,198.473742 423.402858,201.175153 420.128029,201.363895 L419.761468,201.374429 L407.804281,201.374429 L407.804731,295.715429 C414.829658,298.252139 419.848114,304.950289 419.848114,312.814498 C419.848114,322.857398 411.662142,331 401.565749,331 C391.469357,331 383.283385,322.857398 383.283385,312.814498 C383.283385,304.949509 388.302836,298.250811 395.328857,295.714675 L395.327217,201.374429 L359.280979,201.374429 L359.282815,295.715429 C366.307742,298.252139 371.326198,304.950289 371.326198,312.814498 C371.326198,322.857398 363.140225,331 353.043833,331 C342.94744,331 334.761468,322.857398 334.761468,312.814498 C334.761468,304.950289 339.779924,298.252139 346.804851,295.715429 L346.804024,201.510448 C333.726137,202.08475 321.565125,204.46501 310.760359,208.41025 L310.760898,280.632667 C317.785825,283.169377 322.804281,289.867527 322.804281,297.731735 C322.804281,307.774636 314.618309,315.917238 304.521916,315.917238 C294.425524,315.917238 286.239552,307.774636 286.239552,297.731735 C286.239552,289.867527 291.258008,283.169377 298.282934,280.632667 L298.282501,213.982853 C286.269455,220.442853 276.645363,229.186116 270.263374,239.744722 C274.593641,243.625934 277.314985,249.246706 277.314985,255.5 C277.314985,267.209244 267.771612,276.702055 256,276.702055 C255.033353,276.702055 254.081732,276.638043 253.149186,276.514049 C236.914891,304.591988 202.104708,321.598292 160.571714,322.02818 L158.956167,322.03653 L92.2385321,322.03653 C88.793086,322.03653 86,319.258242 86,315.831051 C86,312.526258 88.5971424,309.824847 91.871971,309.636105 L92.2385321,309.625571 L104.195719,309.624881 L104.195737,215.284594 C97.1707263,212.74778 92.1518858,206.049181 92.1518858,198.185502 C92.1518858,188.141773 100.337478,180 110.434251,180 C120.531024,180 128.716616,188.141773 128.716616,198.185502 C128.716616,206.048404 123.698766,212.746458 116.674845,215.283842 L116.672783,309.624881 L152.716942,309.624881 L152.717337,215.284479 C145.692492,212.747579 140.673802,206.049062 140.673802,198.185502 C140.673802,188.141773 148.859394,180 158.956167,180 Z" id="路径备份" fill="#FFFFFF" fill-rule="nonzero"></path>
        </g>
    </g>
</svg>